<?xml version="1.0" encoding="utf-8" standalone="no"?>
<!DOCTYPE svg PUBLIC "-//W3C//DTD SVG 1.1//EN"
  "http://www.w3.org/Graphics/SVG/1.1/DTD/svg11.dtd">
<svg xmlns:xlink="http://www.w3.org/1999/xlink" width="460.8pt" height="345.6pt" viewBox="0 0 460.8 345.6" xmlns="http://www.w3.org/2000/svg" version="1.1">
 <metadata>
  <rdf:RDF xmlns:dc="http://purl.org/dc/elements/1.1/" xmlns:cc="http://creativecommons.org/ns#" xmlns:rdf="http://www.w3.org/1999/02/22-rdf-syntax-ns#">
   <cc:Work>
    <dc:type rdf:resource="http://purl.org/dc/dcmitype/StillImage"/>
    <dc:date>2025-05-05T19:21:08.943865</dc:date>
    <dc:format>image/svg+xml</dc:format>
    <dc:creator>
     <cc:Agent>
      <dc:title>Matplotlib v3.8.2, https://matplotlib.org/</dc:title>
     </cc:Agent>
    </dc:creator>
   </cc:Work>
  </rdf:RDF>
 </metadata>
 <defs>
  <style type="text/css">*{stroke-linejoin: round; stroke-linecap: butt}</style>
 </defs>
 <g id="figure_1">
  <g id="patch_1">
   <path d="M 0 345.6 
L 460.8 345.6 
L 460.8 0 
L 0 0 
z
" style="fill: #ffffff"/>
  </g>
  <g id="axes_1">
   <g id="patch_2">
    <path d="M 22.69 315.44 
L 453.192 315.44 
L 453.192 25.56 
L 22.69 25.56 
z
" style="fill: #ffffff"/>
   </g>
   <g id="line2d_1">
    <path d="M 36.781228 145.75501 
L 91.009334 106.848052 
L 159.328668 54.138289 
L 252.032228 35.781126 
L 344.735788 53.900639 
L 437.439347 35.703491 
" clip-path="url(#pa66f334269)" style="fill: none; stroke: #f5deb3; stroke-width: 10; stroke-linecap: square"/>
    <defs>
     <path id="ma6d4f7683c" d="M -0 17.67767 
L 10.606602 0 
L 0 -17.67767 
L -10.606602 -0 
z
" style="stroke: #f5deb3; stroke-linejoin: miter"/>
    </defs>
    <g clip-path="url(#pa66f334269)">
     <use xlink:href="#ma6d4f7683c" x="36.781228" y="145.75501" style="fill: #f5deb3; stroke: #f5deb3; stroke-linejoin: miter"/>
     <use xlink:href="#ma6d4f7683c" x="91.009334" y="106.848052" style="fill: #f5deb3; stroke: #f5deb3; stroke-linejoin: miter"/>
     <use xlink:href="#ma6d4f7683c" x="159.328668" y="54.138289" style="fill: #f5deb3; stroke: #f5deb3; stroke-linejoin: miter"/>
     <use xlink:href="#ma6d4f7683c" x="252.032228" y="35.781126" style="fill: #f5deb3; stroke: #f5deb3; stroke-linejoin: miter"/>
     <use xlink:href="#ma6d4f7683c" x="344.735788" y="53.900639" style="fill: #f5deb3; stroke: #f5deb3; stroke-linejoin: miter"/>
     <use xlink:href="#ma6d4f7683c" x="437.439347" y="35.703491" style="fill: #f5deb3; stroke: #f5deb3; stroke-linejoin: miter"/>
    </g>
   </g>
   <g id="line2d_2"/>
   <g id="line2d_3">
    <defs>
     <path id="m4c9668ae90" d="M 0 -10 
L -2.24514 -3.09017 
L -9.510565 -3.09017 
L -3.632713 1.18034 
L -5.877853 8.09017 
L -0 3.81966 
L 5.877853 8.09017 
L 3.632713 1.18034 
L 9.510565 -3.09017 
L 2.24514 -3.09017 
z
" style="stroke: #0d0887; stroke-linejoin: bevel"/>
    </defs>
    <g clip-path="url(#pa66f334269)">
     <use xlink:href="#m4c9668ae90" x="36.781228" y="235.212442" style="fill-opacity: 0; stroke: #0d0887; stroke-linejoin: bevel"/>
     <use xlink:href="#m4c9668ae90" x="91.009334" y="233.711425" style="fill-opacity: 0; stroke: #0d0887; stroke-linejoin: bevel"/>
     <use xlink:href="#m4c9668ae90" x="159.328668" y="230.158964" style="fill-opacity: 0; stroke: #0d0887; stroke-linejoin: bevel"/>
     <use xlink:href="#m4c9668ae90" x="252.032228" y="220.708315" style="fill-opacity: 0; stroke: #0d0887; stroke-linejoin: bevel"/>
     <use xlink:href="#m4c9668ae90" x="344.735788" y="209.060466" style="fill-opacity: 0; stroke: #0d0887; stroke-linejoin: bevel"/>
    </g>
   </g>
   <g id="matplotlib.axis_1">
    <g id="xtick_1">
     <g id="line2d_4">
      <defs>
       <path id="me33c82ba84" d="M 0 0 
L 0 3.5 
" style="stroke: #000000; stroke-width: 0.8"/>
      </defs>
      <g>
       <use xlink:href="#me33c82ba84" x="36.781228" y="315.44" style="stroke: #000000; stroke-width: 0.8"/>
      </g>
     </g>
     <g id="text_1">
      <!-- 2 -->
      <g transform="translate(30.418728 337.636875) scale(0.2 -0.2)">
       <defs>
        <path id="DejaVuSans-32" d="M 1228 531 
L 3431 531 
L 3431 0 
L 469 0 
L 469 531 
Q 828 903 1448 1529 
Q 2069 2156 2228 2338 
Q 2531 2678 2651 2914 
Q 2772 3150 2772 3378 
Q 2772 3750 2511 3984 
Q 2250 4219 1831 4219 
Q 1534 4219 1204 4116 
Q 875 4013 500 3803 
L 500 4441 
Q 881 4594 1212 4672 
Q 1544 4750 1819 4750 
Q 2544 4750 2975 4387 
Q 3406 4025 3406 3419 
Q 3406 3131 3298 2873 
Q 3191 2616 2906 2266 
Q 2828 2175 2409 1742 
Q 1991 1309 1228 531 
z
" transform="scale(0.015625)"/>
       </defs>
       <use xlink:href="#DejaVuSans-32"/>
      </g>
     </g>
    </g>
    <g id="xtick_2">
     <g id="line2d_5">
      <g>
       <use xlink:href="#me33c82ba84" x="91.009334" y="315.44" style="stroke: #000000; stroke-width: 0.8"/>
      </g>
     </g>
     <g id="text_2">
      <!-- 3 -->
      <g transform="translate(84.646834 337.636875) scale(0.2 -0.2)">
       <defs>
        <path id="DejaVuSans-33" d="M 2597 2516 
Q 3050 2419 3304 2112 
Q 3559 1806 3559 1356 
Q 3559 666 3084 287 
Q 2609 -91 1734 -91 
Q 1441 -91 1130 -33 
Q 819 25 488 141 
L 488 750 
Q 750 597 1062 519 
Q 1375 441 1716 441 
Q 2309 441 2620 675 
Q 2931 909 2931 1356 
Q 2931 1769 2642 2001 
Q 2353 2234 1838 2234 
L 1294 2234 
L 1294 2753 
L 1863 2753 
Q 2328 2753 2575 2939 
Q 2822 3125 2822 3475 
Q 2822 3834 2567 4026 
Q 2313 4219 1838 4219 
Q 1578 4219 1281 4162 
Q 984 4106 628 3988 
L 628 4550 
Q 988 4650 1302 4700 
Q 1616 4750 1894 4750 
Q 2613 4750 3031 4423 
Q 3450 4097 3450 3541 
Q 3450 3153 3228 2886 
Q 3006 2619 2597 2516 
z
" transform="scale(0.015625)"/>
       </defs>
       <use xlink:href="#DejaVuSans-33"/>
      </g>
     </g>
    </g>
    <g id="xtick_3">
     <g id="line2d_6">
      <g>
       <use xlink:href="#me33c82ba84" x="159.328668" y="315.44" style="stroke: #000000; stroke-width: 0.8"/>
      </g>
     </g>
     <g id="text_3">
      <!-- 5 -->
      <g transform="translate(152.966168 337.636875) scale(0.2 -0.2)">
       <defs>
        <path id="DejaVuSans-35" d="M 691 4666 
L 3169 4666 
L 3169 4134 
L 1269 4134 
L 1269 2991 
Q 1406 3038 1543 3061 
Q 1681 3084 1819 3084 
Q 2600 3084 3056 2656 
Q 3513 2228 3513 1497 
Q 3513 744 3044 326 
Q 2575 -91 1722 -91 
Q 1428 -91 1123 -41 
Q 819 9 494 109 
L 494 744 
Q 775 591 1075 516 
Q 1375 441 1709 441 
Q 2250 441 2565 725 
Q 2881 1009 2881 1497 
Q 2881 1984 2565 2268 
Q 2250 2553 1709 2553 
Q 1456 2553 1204 2497 
Q 953 2441 691 2322 
L 691 4666 
z
" transform="scale(0.015625)"/>
       </defs>
       <use xlink:href="#DejaVuSans-35"/>
      </g>
     </g>
    </g>
    <g id="xtick_4">
     <g id="line2d_7">
      <g>
       <use xlink:href="#me33c82ba84" x="252.032228" y="315.44" style="stroke: #000000; stroke-width: 0.8"/>
      </g>
     </g>
     <g id="text_4">
      <!-- 10 -->
      <g transform="translate(239.307228 337.636875) scale(0.2 -0.2)">
       <defs>
        <path id="DejaVuSans-31" d="M 794 531 
L 1825 531 
L 1825 4091 
L 703 3866 
L 703 4441 
L 1819 4666 
L 2450 4666 
L 2450 531 
L 3481 531 
L 3481 0 
L 794 0 
L 794 531 
z
" transform="scale(0.015625)"/>
        <path id="DejaVuSans-30" d="M 2034 4250 
Q 1547 4250 1301 3770 
Q 1056 3291 1056 2328 
Q 1056 1369 1301 889 
Q 1547 409 2034 409 
Q 2525 409 2770 889 
Q 3016 1369 3016 2328 
Q 3016 3291 2770 3770 
Q 2525 4250 2034 4250 
z
M 2034 4750 
Q 2819 4750 3233 4129 
Q 3647 3509 3647 2328 
Q 3647 1150 3233 529 
Q 2819 -91 2034 -91 
Q 1250 -91 836 529 
Q 422 1150 422 2328 
Q 422 3509 836 4129 
Q 1250 4750 2034 4750 
z
" transform="scale(0.015625)"/>
       </defs>
       <use xlink:href="#DejaVuSans-31"/>
       <use xlink:href="#DejaVuSans-30" x="63.623047"/>
      </g>
     </g>
    </g>
    <g id="xtick_5">
     <g id="line2d_8">
      <g>
       <use xlink:href="#me33c82ba84" x="344.735788" y="315.44" style="stroke: #000000; stroke-width: 0.8"/>
      </g>
     </g>
     <g id="text_5">
      <!-- 20 -->
      <g transform="translate(332.010788 337.636875) scale(0.2 -0.2)">
       <use xlink:href="#DejaVuSans-32"/>
       <use xlink:href="#DejaVuSans-30" x="63.623047"/>
      </g>
     </g>
    </g>
    <g id="xtick_6">
     <g id="line2d_9">
      <g>
       <use xlink:href="#me33c82ba84" x="437.439347" y="315.44" style="stroke: #000000; stroke-width: 0.8"/>
      </g>
     </g>
     <g id="text_6">
      <!-- 40 -->
      <g transform="translate(424.714347 337.636875) scale(0.2 -0.2)">
       <defs>
        <path id="DejaVuSans-34" d="M 2419 4116 
L 825 1625 
L 2419 1625 
L 2419 4116 
z
M 2253 4666 
L 3047 4666 
L 3047 1625 
L 3713 1625 
L 3713 1100 
L 3047 1100 
L 3047 0 
L 2419 0 
L 2419 1100 
L 313 1100 
L 313 1709 
L 2253 4666 
z
" transform="scale(0.015625)"/>
       </defs>
       <use xlink:href="#DejaVuSans-34"/>
       <use xlink:href="#DejaVuSans-30" x="63.623047"/>
      </g>
     </g>
    </g>
    <g id="xtick_7">
     <g id="line2d_10">
      <defs>
       <path id="m05e4475fa1" d="M 0 0 
L 0 2 
" style="stroke: #000000; stroke-width: 0.6"/>
      </defs>
      <g>
       <use xlink:href="#m05e4475fa1" x="129.484788" y="315.44" style="stroke: #000000; stroke-width: 0.6"/>
      </g>
     </g>
    </g>
    <g id="xtick_8">
     <g id="line2d_11">
      <g>
       <use xlink:href="#m05e4475fa1" x="183.712894" y="315.44" style="stroke: #000000; stroke-width: 0.6"/>
      </g>
     </g>
    </g>
    <g id="xtick_9">
     <g id="line2d_12">
      <g>
       <use xlink:href="#m05e4475fa1" x="204.329463" y="315.44" style="stroke: #000000; stroke-width: 0.6"/>
      </g>
     </g>
    </g>
    <g id="xtick_10">
     <g id="line2d_13">
      <g>
       <use xlink:href="#m05e4475fa1" x="222.188347" y="315.44" style="stroke: #000000; stroke-width: 0.6"/>
      </g>
     </g>
    </g>
    <g id="xtick_11">
     <g id="line2d_14">
      <g>
       <use xlink:href="#m05e4475fa1" x="237.941" y="315.44" style="stroke: #000000; stroke-width: 0.6"/>
      </g>
     </g>
    </g>
    <g id="xtick_12">
     <g id="line2d_15">
      <g>
       <use xlink:href="#m05e4475fa1" x="398.963894" y="315.44" style="stroke: #000000; stroke-width: 0.6"/>
      </g>
     </g>
    </g>
   </g>
   <g id="matplotlib.axis_2">
    <g id="ytick_1">
     <g id="line2d_16">
      <path d="M 22.69 267.998571 
L 453.192 267.998571 
" clip-path="url(#pa66f334269)" style="fill: none; stroke: #b0b0b0; stroke-width: 0.8; stroke-linecap: square"/>
     </g>
     <g id="line2d_17">
      <defs>
       <path id="mcad3ab071e" d="M 0 0 
L -3.5 0 
" style="stroke: #000000; stroke-width: 0.8"/>
      </defs>
      <g>
       <use xlink:href="#mcad3ab071e" x="22.69" y="267.998571" style="stroke: #000000; stroke-width: 0.8"/>
      </g>
     </g>
     <g id="text_7">
      <!-- 1 -->
      <g transform="translate(2.965 275.597009) scale(0.2 -0.2)">
       <use xlink:href="#DejaVuSans-31"/>
      </g>
     </g>
    </g>
    <g id="ytick_2">
     <g id="line2d_18">
      <path d="M 22.69 188.929524 
L 453.192 188.929524 
" clip-path="url(#pa66f334269)" style="fill: none; stroke: #b0b0b0; stroke-width: 0.8; stroke-linecap: square"/>
     </g>
     <g id="line2d_19">
      <g>
       <use xlink:href="#mcad3ab071e" x="22.69" y="188.929524" style="stroke: #000000; stroke-width: 0.8"/>
      </g>
     </g>
     <g id="text_8">
      <!-- 3 -->
      <g transform="translate(2.965 196.527961) scale(0.2 -0.2)">
       <use xlink:href="#DejaVuSans-33"/>
      </g>
     </g>
    </g>
    <g id="ytick_3">
     <g id="line2d_20">
      <path d="M 22.69 109.860476 
L 453.192 109.860476 
" clip-path="url(#pa66f334269)" style="fill: none; stroke: #b0b0b0; stroke-width: 0.8; stroke-linecap: square"/>
     </g>
     <g id="line2d_21">
      <g>
       <use xlink:href="#mcad3ab071e" x="22.69" y="109.860476" style="stroke: #000000; stroke-width: 0.8"/>
      </g>
     </g>
     <g id="text_9">
      <!-- 5 -->
      <g transform="translate(2.965 117.458914) scale(0.2 -0.2)">
       <use xlink:href="#DejaVuSans-35"/>
      </g>
     </g>
    </g>
    <g id="ytick_4">
     <g id="line2d_22">
      <path d="M 22.69 30.791428 
L 453.192 30.791428 
" clip-path="url(#pa66f334269)" style="fill: none; stroke: #b0b0b0; stroke-width: 0.8; stroke-linecap: square"/>
     </g>
     <g id="line2d_23">
      <g>
       <use xlink:href="#mcad3ab071e" x="22.69" y="30.791428" style="stroke: #000000; stroke-width: 0.8"/>
      </g>
     </g>
     <g id="text_10">
      <!-- 7 -->
      <g transform="translate(2.965 38.389866) scale(0.2 -0.2)">
       <defs>
        <path id="DejaVuSans-37" d="M 525 4666 
L 3525 4666 
L 3525 4397 
L 1831 0 
L 1172 0 
L 2766 4134 
L 525 4134 
L 525 4666 
z
" transform="scale(0.015625)"/>
       </defs>
       <use xlink:href="#DejaVuSans-37"/>
      </g>
     </g>
    </g>
   </g>
   <g id="line2d_24">
    <path d="M 36.781228 146.158342 
" clip-path="url(#pa66f334269)" style="fill: none; stroke: #0d0887; stroke-width: 4; stroke-linecap: square"/>
    <defs>
     <path id="ma928a52138" d="M 0 7 
C 1.856422 7 3.637059 6.262436 4.949747 4.949747 
C 6.262436 3.637059 7 1.856422 7 0 
C 7 -1.856422 6.262436 -3.637059 4.949747 -4.949747 
C 3.637059 -6.262436 1.856422 -7 0 -7 
C -1.856422 -7 -3.637059 -6.262436 -4.949747 -4.949747 
C -6.262436 -3.637059 -7 -1.856422 -7 0 
C -7 1.856422 -6.262436 3.637059 -4.949747 4.949747 
C -3.637059 6.262436 -1.856422 7 0 7 
z
" style="stroke: #0d0887; stroke-width: 3"/>
    </defs>
    <g clip-path="url(#pa66f334269)">
     <use xlink:href="#ma928a52138" x="36.781228" y="146.158342" style="fill-opacity: 0; stroke: #0d0887; stroke-width: 3"/>
    </g>
   </g>
   <g id="line2d_25"/>
   <g id="line2d_26">
    <defs>
     <path id="mbdbe75b39d" d="M 0 10 
C 2.652031 10 5.195799 8.946337 7.071068 7.071068 
C 8.946337 5.195799 10 2.652031 10 0 
C 10 -2.652031 8.946337 -5.195799 7.071068 -7.071068 
C 5.195799 -8.946337 2.652031 -10 0 -10 
C -2.652031 -10 -5.195799 -8.946337 -7.071068 -7.071068 
C -8.946337 -5.195799 -10 -2.652031 -10 0 
C -10 2.652031 -8.946337 5.195799 -7.071068 7.071068 
C -5.195799 8.946337 -2.652031 10 0 10 
z
" style="stroke: #0d0887"/>
    </defs>
    <g clip-path="url(#pa66f334269)">
     <use xlink:href="#mbdbe75b39d" x="36.781228" y="238.573303" style="fill-opacity: 0; stroke: #0d0887"/>
     <use xlink:href="#mbdbe75b39d" x="91.009334" y="238.115419" style="fill-opacity: 0; stroke: #0d0887"/>
     <use xlink:href="#mbdbe75b39d" x="159.328668" y="234.248019" style="fill-opacity: 0; stroke: #0d0887"/>
     <use xlink:href="#mbdbe75b39d" x="252.032228" y="227.17448" style="fill-opacity: 0; stroke: #0d0887"/>
     <use xlink:href="#mbdbe75b39d" x="344.735788" y="217.882989" style="fill-opacity: 0; stroke: #0d0887"/>
    </g>
   </g>
   <g id="line2d_27"/>
   <g id="line2d_28">
    <defs>
     <path id="m44328b60bf" d="M 0 10 
C 2.652031 10 5.195799 8.946337 7.071068 7.071068 
C 8.946337 5.195799 10 2.652031 10 0 
C 10 -2.652031 8.946337 -5.195799 7.071068 -7.071068 
C 5.195799 -8.946337 2.652031 -10 0 -10 
C -2.652031 -10 -5.195799 -8.946337 -7.071068 -7.071068 
C -8.946337 -5.195799 -10 -2.652031 -10 0 
C -10 2.652031 -8.946337 5.195799 -7.071068 7.071068 
C -5.195799 8.946337 -2.652031 10 0 10 
z
" style="stroke: #38049a"/>
    </defs>
    <g clip-path="url(#pa66f334269)">
     <use xlink:href="#m44328b60bf" x="36.781228" y="234.588023" style="fill-opacity: 0; stroke: #38049a"/>
     <use xlink:href="#m44328b60bf" x="91.009334" y="232.951583" style="fill-opacity: 0; stroke: #38049a"/>
     <use xlink:href="#m44328b60bf" x="159.328668" y="225.078023" style="fill-opacity: 0; stroke: #38049a"/>
     <use xlink:href="#m44328b60bf" x="252.032228" y="210.343967" style="fill-opacity: 0; stroke: #38049a"/>
     <use xlink:href="#m44328b60bf" x="344.735788" y="192.385078" style="fill-opacity: 0; stroke: #38049a"/>
    </g>
   </g>
   <g id="line2d_29">
    <path d="M 36.781228 153.551825 
L 91.009334 139.623536 
" clip-path="url(#pa66f334269)" style="fill: none; stroke: #5b01a5; stroke-width: 3.333333; stroke-linecap: square"/>
    <defs>
     <path id="mf77caa37e6" d="M 0 7 
C 1.856422 7 3.637059 6.262436 4.949747 4.949747 
C 6.262436 3.637059 7 1.856422 7 0 
C 7 -1.856422 6.262436 -3.637059 4.949747 -4.949747 
C 3.637059 -6.262436 1.856422 -7 0 -7 
C -1.856422 -7 -3.637059 -6.262436 -4.949747 -4.949747 
C -6.262436 -3.637059 -7 -1.856422 -7 0 
C -7 1.856422 -6.262436 3.637059 -4.949747 4.949747 
C -3.637059 6.262436 -1.856422 7 0 7 
z
" style="stroke: #5b01a5; stroke-width: 2"/>
    </defs>
    <g clip-path="url(#pa66f334269)">
     <use xlink:href="#mf77caa37e6" x="36.781228" y="153.551825" style="fill-opacity: 0; stroke: #5b01a5; stroke-width: 2"/>
     <use xlink:href="#mf77caa37e6" x="91.009334" y="139.623536" style="fill-opacity: 0; stroke: #5b01a5; stroke-width: 2"/>
    </g>
   </g>
   <g id="line2d_30">
    <path d="M 91.009334 139.623536 
" clip-path="url(#pa66f334269)" style="fill: none; stroke: #5b01a5; stroke-width: 3.333333; stroke-linecap: square"/>
    <g clip-path="url(#pa66f334269)">
     <use xlink:href="#mf77caa37e6" x="91.009334" y="139.623536" style="fill-opacity: 0; stroke: #5b01a5; stroke-width: 2"/>
    </g>
   </g>
   <g id="line2d_31"/>
   <g id="line2d_32">
    <defs>
     <path id="ma7e77a630d" d="M 0 10 
C 2.652031 10 5.195799 8.946337 7.071068 7.071068 
C 8.946337 5.195799 10 2.652031 10 0 
C 10 -2.652031 8.946337 -5.195799 7.071068 -7.071068 
C 5.195799 -8.946337 2.652031 -10 0 -10 
C -2.652031 -10 -5.195799 -8.946337 -7.071068 -7.071068 
C -8.946337 -5.195799 -10 -2.652031 -10 0 
C -10 2.652031 -8.946337 5.195799 -7.071068 7.071068 
C -5.195799 8.946337 -2.652031 10 0 10 
z
" style="stroke: #5b01a5"/>
    </defs>
    <g clip-path="url(#pa66f334269)">
     <use xlink:href="#ma7e77a630d" x="36.781228" y="217.308639" style="fill-opacity: 0; stroke: #5b01a5"/>
     <use xlink:href="#ma7e77a630d" x="91.009334" y="226.365617" style="fill-opacity: 0; stroke: #5b01a5"/>
     <use xlink:href="#ma7e77a630d" x="159.328668" y="204.005005" style="fill-opacity: 0; stroke: #5b01a5"/>
     <use xlink:href="#ma7e77a630d" x="252.032228" y="194.370663" style="fill-opacity: 0; stroke: #5b01a5"/>
     <use xlink:href="#ma7e77a630d" x="344.735788" y="189.677883" style="fill-opacity: 0; stroke: #5b01a5"/>
    </g>
   </g>
   <g id="line2d_33"/>
   <g id="line2d_34">
    <defs>
     <path id="medd858fda4" d="M 0 10 
C 2.652031 10 5.195799 8.946337 7.071068 7.071068 
C 8.946337 5.195799 10 2.652031 10 0 
C 10 -2.652031 8.946337 -5.195799 7.071068 -7.071068 
C 5.195799 -8.946337 2.652031 -10 0 -10 
C -2.652031 -10 -5.195799 -8.946337 -7.071068 -7.071068 
C -8.946337 -5.195799 -10 -2.652031 -10 0 
C -10 2.652031 -8.946337 5.195799 -7.071068 7.071068 
C -5.195799 8.946337 -2.652031 10 0 10 
z
" style="stroke: #7b02a8"/>
    </defs>
    <g clip-path="url(#pa66f334269)">
     <use xlink:href="#medd858fda4" x="36.781228" y="203.280987" style="fill-opacity: 0; stroke: #7b02a8"/>
     <use xlink:href="#medd858fda4" x="91.009334" y="189.630422" style="fill-opacity: 0; stroke: #7b02a8"/>
     <use xlink:href="#medd858fda4" x="159.328668" y="154.445093" style="fill-opacity: 0; stroke: #7b02a8"/>
     <use xlink:href="#medd858fda4" x="252.032228" y="189.729073" style="fill-opacity: 0; stroke: #7b02a8"/>
     <use xlink:href="#medd858fda4" x="344.735788" y="186.93167" style="fill-opacity: 0; stroke: #7b02a8"/>
    </g>
   </g>
   <g id="line2d_35"/>
   <g id="line2d_36">
    <defs>
     <path id="m3ea4eb9d14" d="M 0 10 
C 2.652031 10 5.195799 8.946337 7.071068 7.071068 
C 8.946337 5.195799 10 2.652031 10 0 
C 10 -2.652031 8.946337 -5.195799 7.071068 -7.071068 
C 5.195799 -8.946337 2.652031 -10 0 -10 
C -2.652031 -10 -5.195799 -8.946337 -7.071068 -7.071068 
C -8.946337 -5.195799 -10 -2.652031 -10 0 
C -10 2.652031 -8.946337 5.195799 -7.071068 7.071068 
C -5.195799 8.946337 -2.652031 10 0 10 
z
" style="stroke: #99159f"/>
    </defs>
    <g clip-path="url(#pa66f334269)">
     <use xlink:href="#m3ea4eb9d14" x="36.781228" y="213.612365" style="fill-opacity: 0; stroke: #99159f"/>
     <use xlink:href="#m3ea4eb9d14" x="91.009334" y="198.262561" style="fill-opacity: 0; stroke: #99159f"/>
     <use xlink:href="#m3ea4eb9d14" x="159.328668" y="149.394313" style="fill-opacity: 0; stroke: #99159f"/>
     <use xlink:href="#m3ea4eb9d14" x="252.032228" y="188.313999" style="fill-opacity: 0; stroke: #99159f"/>
     <use xlink:href="#m3ea4eb9d14" x="344.735788" y="186.859986" style="fill-opacity: 0; stroke: #99159f"/>
    </g>
   </g>
   <g id="line2d_37"/>
   <g id="line2d_38">
    <defs>
     <path id="m1d2e6c9c96" d="M 0 10 
C 2.652031 10 5.195799 8.946337 7.071068 7.071068 
C 8.946337 5.195799 10 2.652031 10 0 
C 10 -2.652031 8.946337 -5.195799 7.071068 -7.071068 
C 5.195799 -8.946337 2.652031 -10 0 -10 
C -2.652031 -10 -5.195799 -8.946337 -7.071068 -7.071068 
C -8.946337 -5.195799 -10 -2.652031 -10 0 
C -10 2.652031 -8.946337 5.195799 -7.071068 7.071068 
C -5.195799 8.946337 -2.652031 10 0 10 
z
" style="stroke: #b32c8e"/>
    </defs>
    <g clip-path="url(#pa66f334269)">
     <use xlink:href="#m1d2e6c9c96" x="36.781228" y="223.893441" style="fill-opacity: 0; stroke: #b32c8e"/>
     <use xlink:href="#m1d2e6c9c96" x="91.009334" y="208.403991" style="fill-opacity: 0; stroke: #b32c8e"/>
     <use xlink:href="#m1d2e6c9c96" x="159.328668" y="149.394313" style="fill-opacity: 0; stroke: #b32c8e"/>
     <use xlink:href="#m1d2e6c9c96" x="252.032228" y="184.147089" style="fill-opacity: 0; stroke: #b32c8e"/>
     <use xlink:href="#m1d2e6c9c96" x="344.735788" y="185.459829" style="fill-opacity: 0; stroke: #b32c8e"/>
    </g>
   </g>
   <g id="line2d_39"/>
   <g id="line2d_40">
    <defs>
     <path id="m7bb240b089" d="M 0 10 
C 2.652031 10 5.195799 8.946337 7.071068 7.071068 
C 8.946337 5.195799 10 2.652031 10 0 
C 10 -2.652031 8.946337 -5.195799 7.071068 -7.071068 
C 5.195799 -8.946337 2.652031 -10 0 -10 
C -2.652031 -10 -5.195799 -8.946337 -7.071068 -7.071068 
C -8.946337 -5.195799 -10 -2.652031 -10 0 
C -10 2.652031 -8.946337 5.195799 -7.071068 7.071068 
C -5.195799 8.946337 -2.652031 10 0 10 
z
" style="stroke: #c9447a"/>
    </defs>
    <g clip-path="url(#pa66f334269)">
     <use xlink:href="#m7bb240b089" x="36.781228" y="227.06335" style="fill-opacity: 0; stroke: #c9447a"/>
     <use xlink:href="#m7bb240b089" x="91.009334" y="214.388735" style="fill-opacity: 0; stroke: #c9447a"/>
     <use xlink:href="#m7bb240b089" x="159.328668" y="169.903854" style="fill-opacity: 0; stroke: #c9447a"/>
     <use xlink:href="#m7bb240b089" x="252.032228" y="175.939939" style="fill-opacity: 0; stroke: #c9447a"/>
     <use xlink:href="#m7bb240b089" x="344.735788" y="182.290202" style="fill-opacity: 0; stroke: #c9447a"/>
    </g>
   </g>
   <g id="line2d_41"/>
   <g id="line2d_42">
    <defs>
     <path id="m8ee828b68b" d="M 0 10 
C 2.652031 10 5.195799 8.946337 7.071068 7.071068 
C 8.946337 5.195799 10 2.652031 10 0 
C 10 -2.652031 8.946337 -5.195799 7.071068 -7.071068 
C 5.195799 -8.946337 2.652031 -10 0 -10 
C -2.652031 -10 -5.195799 -8.946337 -7.071068 -7.071068 
C -8.946337 -5.195799 -10 -2.652031 -10 0 
C -10 2.652031 -8.946337 5.195799 -7.071068 7.071068 
C -5.195799 8.946337 -2.652031 10 0 10 
z
" style="stroke: #db5c68"/>
    </defs>
    <g clip-path="url(#pa66f334269)">
     <use xlink:href="#m8ee828b68b" x="36.781228" y="229.802618" style="fill-opacity: 0; stroke: #db5c68"/>
     <use xlink:href="#m8ee828b68b" x="91.009334" y="222.768901" style="fill-opacity: 0; stroke: #db5c68"/>
     <use xlink:href="#m8ee828b68b" x="159.328668" y="188.000487" style="fill-opacity: 0; stroke: #db5c68"/>
     <use xlink:href="#m8ee828b68b" x="252.032228" y="174.098819" style="fill-opacity: 0; stroke: #db5c68"/>
     <use xlink:href="#m8ee828b68b" x="344.735788" y="181.048022" style="fill-opacity: 0; stroke: #db5c68"/>
    </g>
   </g>
   <g id="line2d_43"/>
   <g id="line2d_44">
    <defs>
     <path id="m85dc032d7b" d="M 0 10 
C 2.652031 10 5.195799 8.946337 7.071068 7.071068 
C 8.946337 5.195799 10 2.652031 10 0 
C 10 -2.652031 8.946337 -5.195799 7.071068 -7.071068 
C 5.195799 -8.946337 2.652031 -10 0 -10 
C -2.652031 -10 -5.195799 -8.946337 -7.071068 -7.071068 
C -8.946337 -5.195799 -10 -2.652031 -10 0 
C -10 2.652031 -8.946337 5.195799 -7.071068 7.071068 
C -5.195799 8.946337 -2.652031 10 0 10 
z
" style="stroke: #eb7556"/>
    </defs>
    <g clip-path="url(#pa66f334269)">
     <use xlink:href="#m85dc032d7b" x="36.781228" y="231.767001" style="fill-opacity: 0; stroke: #eb7556"/>
     <use xlink:href="#m85dc032d7b" x="91.009334" y="227.089744" style="fill-opacity: 0; stroke: #eb7556"/>
     <use xlink:href="#m85dc032d7b" x="159.328668" y="204.877865" style="fill-opacity: 0; stroke: #eb7556"/>
     <use xlink:href="#m85dc032d7b" x="252.032228" y="153.644267" style="fill-opacity: 0; stroke: #eb7556"/>
     <use xlink:href="#m85dc032d7b" x="344.735788" y="177.243984" style="fill-opacity: 0; stroke: #eb7556"/>
    </g>
   </g>
   <g id="line2d_45"/>
   <g id="line2d_46">
    <defs>
     <path id="m7d10e01435" d="M 0 10 
C 2.652031 10 5.195799 8.946337 7.071068 7.071068 
C 8.946337 5.195799 10 2.652031 10 0 
C 10 -2.652031 8.946337 -5.195799 7.071068 -7.071068 
C 5.195799 -8.946337 2.652031 -10 0 -10 
C -2.652031 -10 -5.195799 -8.946337 -7.071068 -7.071068 
C -8.946337 -5.195799 -10 -2.652031 -10 0 
C -10 2.652031 -8.946337 5.195799 -7.071068 7.071068 
C -5.195799 8.946337 -2.652031 10 0 10 
z
" style="stroke: #f79044"/>
    </defs>
    <g clip-path="url(#pa66f334269)">
     <use xlink:href="#m7d10e01435" x="36.781228" y="233.063437" style="fill-opacity: 0; stroke: #f79044"/>
     <use xlink:href="#m7d10e01435" x="91.009334" y="230.209574" style="fill-opacity: 0; stroke: #f79044"/>
     <use xlink:href="#m7d10e01435" x="159.328668" y="216.631786" style="fill-opacity: 0; stroke: #f79044"/>
     <use xlink:href="#m7d10e01435" x="252.032228" y="149.394656" style="fill-opacity: 0; stroke: #f79044"/>
     <use xlink:href="#m7d10e01435" x="344.735788" y="172.172744" style="fill-opacity: 0; stroke: #f79044"/>
    </g>
   </g>
   <g id="line2d_47"/>
   <g id="line2d_48">
    <defs>
     <path id="m2257b97608" d="M 0 10 
C 2.652031 10 5.195799 8.946337 7.071068 7.071068 
C 8.946337 5.195799 10 2.652031 10 0 
C 10 -2.652031 8.946337 -5.195799 7.071068 -7.071068 
C 5.195799 -8.946337 2.652031 -10 0 -10 
C -2.652031 -10 -5.195799 -8.946337 -7.071068 -7.071068 
C -8.946337 -5.195799 -10 -2.652031 -10 0 
C -10 2.652031 -8.946337 5.195799 -7.071068 7.071068 
C -5.195799 8.946337 -2.652031 10 0 10 
z
" style="stroke: #fdae32"/>
    </defs>
    <g clip-path="url(#pa66f334269)">
     <use xlink:href="#m2257b97608" x="36.781228" y="234.711103" style="fill-opacity: 0; stroke: #fdae32"/>
     <use xlink:href="#m2257b97608" x="91.009334" y="231.663257" style="fill-opacity: 0; stroke: #fdae32"/>
     <use xlink:href="#m2257b97608" x="159.328668" y="221.732832" style="fill-opacity: 0; stroke: #fdae32"/>
     <use xlink:href="#m2257b97608" x="252.032228" y="170.26941" style="fill-opacity: 0; stroke: #fdae32"/>
     <use xlink:href="#m2257b97608" x="344.735788" y="161.210443" style="fill-opacity: 0; stroke: #fdae32"/>
    </g>
   </g>
   <g id="line2d_49"/>
   <g id="line2d_50">
    <defs>
     <path id="mbe64a324c6" d="M 0 10 
C 2.652031 10 5.195799 8.946337 7.071068 7.071068 
C 8.946337 5.195799 10 2.652031 10 0 
C 10 -2.652031 8.946337 -5.195799 7.071068 -7.071068 
C 5.195799 -8.946337 2.652031 -10 0 -10 
C -2.652031 -10 -5.195799 -8.946337 -7.071068 -7.071068 
C -8.946337 -5.195799 -10 -2.652031 -10 0 
C -10 2.652031 -8.946337 5.195799 -7.071068 7.071068 
C -5.195799 8.946337 -2.652031 10 0 10 
z
" style="stroke: #fcce25"/>
    </defs>
    <g clip-path="url(#pa66f334269)">
     <use xlink:href="#mbe64a324c6" x="36.781228" y="230.177925" style="fill-opacity: 0; stroke: #fcce25"/>
     <use xlink:href="#mbe64a324c6" x="91.009334" y="233.403441" style="fill-opacity: 0; stroke: #fcce25"/>
     <use xlink:href="#mbe64a324c6" x="159.328668" y="227.496018" style="fill-opacity: 0; stroke: #fcce25"/>
     <use xlink:href="#mbe64a324c6" x="252.032228" y="207.122183" style="fill-opacity: 0; stroke: #fcce25"/>
     <use xlink:href="#mbe64a324c6" x="344.735788" y="149.394828" style="fill-opacity: 0; stroke: #fcce25"/>
    </g>
   </g>
   <g id="line2d_51"/>
   <g id="line2d_52">
    <path d="M 40.423751 346.6 
L 461.8 292.504651 
" clip-path="url(#pa66f334269)" style="fill: none; stroke-dasharray: 0.5,0.825; stroke-dashoffset: 0; stroke: #000000; stroke-width: 0.5"/>
   </g>
   <g id="line2d_53">
    <path d="M -1 312.383366 
L 461.8 252.970127 
" clip-path="url(#pa66f334269)" style="fill: none; stroke-dasharray: 0.5,0.825; stroke-dashoffset: 0; stroke: #000000; stroke-width: 0.5"/>
   </g>
   <g id="line2d_54">
    <path d="M -1 272.848842 
L 461.8 213.435603 
" clip-path="url(#pa66f334269)" style="fill: none; stroke-dasharray: 0.5,0.825; stroke-dashoffset: 0; stroke: #000000; stroke-width: 0.5"/>
   </g>
   <g id="line2d_55">
    <path d="M -1 233.314318 
L 461.8 173.90108 
" clip-path="url(#pa66f334269)" style="fill: none; stroke-dasharray: 0.5,0.825; stroke-dashoffset: 0; stroke: #000000; stroke-width: 0.5"/>
   </g>
   <g id="line2d_56">
    <path d="M -1 193.779794 
L 461.8 134.366556 
" clip-path="url(#pa66f334269)" style="fill: none; stroke-dasharray: 0.5,0.825; stroke-dashoffset: 0; stroke: #000000; stroke-width: 0.5"/>
   </g>
   <g id="line2d_57">
    <path d="M -1 154.24527 
L 461.8 94.832032 
" clip-path="url(#pa66f334269)" style="fill: none; stroke-dasharray: 0.5,0.825; stroke-dashoffset: 0; stroke: #000000; stroke-width: 0.5"/>
   </g>
   <g id="line2d_58">
    <path d="M -1 114.710746 
L 461.8 55.297508 
" clip-path="url(#pa66f334269)" style="fill: none; stroke-dasharray: 0.5,0.825; stroke-dashoffset: 0; stroke: #000000; stroke-width: 0.5"/>
   </g>
   <g id="line2d_59">
    <path d="M -1 75.176223 
L 461.8 15.762984 
" clip-path="url(#pa66f334269)" style="fill: none; stroke-dasharray: 0.5,0.825; stroke-dashoffset: 0; stroke: #000000; stroke-width: 0.5"/>
   </g>
   <g id="line2d_60">
    <path d="M -1 35.641699 
L 284.42087 -1 
" clip-path="url(#pa66f334269)" style="fill: none; stroke-dasharray: 0.5,0.825; stroke-dashoffset: 0; stroke: #000000; stroke-width: 0.5"/>
   </g>
   <g id="patch_3">
    <path d="M 22.69 315.44 
L 22.69 25.56 
" style="fill: none; stroke: #000000; stroke-width: 0.8; stroke-linejoin: miter; stroke-linecap: square"/>
   </g>
   <g id="patch_4">
    <path d="M 453.192 315.44 
L 453.192 25.56 
" style="fill: none; stroke: #000000; stroke-width: 0.8; stroke-linejoin: miter; stroke-linecap: square"/>
   </g>
   <g id="patch_5">
    <path d="M 22.69 315.44 
L 453.192 315.44 
" style="fill: none; stroke: #000000; stroke-width: 0.8; stroke-linejoin: miter; stroke-linecap: square"/>
   </g>
   <g id="patch_6">
    <path d="M 22.69 25.56 
L 453.192 25.56 
" style="fill: none; stroke: #000000; stroke-width: 0.8; stroke-linejoin: miter; stroke-linecap: square"/>
   </g>
   <g id="text_11">
    <!-- 195, 165, 135, 105, 75, 300, 45, 210, 180, 150, 120, 90, 60, 30, 255 instances -->
    <g transform="translate(22.69 304.729597) scale(0.080666 -0.080666)">
     <defs>
      <path id="DejaVuSans-39" d="M 703 97 
L 703 672 
Q 941 559 1184 500 
Q 1428 441 1663 441 
Q 2288 441 2617 861 
Q 2947 1281 2994 2138 
Q 2813 1869 2534 1725 
Q 2256 1581 1919 1581 
Q 1219 1581 811 2004 
Q 403 2428 403 3163 
Q 403 3881 828 4315 
Q 1253 4750 1959 4750 
Q 2769 4750 3195 4129 
Q 3622 3509 3622 2328 
Q 3622 1225 3098 567 
Q 2575 -91 1691 -91 
Q 1453 -91 1209 -44 
Q 966 3 703 97 
z
M 1959 2075 
Q 2384 2075 2632 2365 
Q 2881 2656 2881 3163 
Q 2881 3666 2632 3958 
Q 2384 4250 1959 4250 
Q 1534 4250 1286 3958 
Q 1038 3666 1038 3163 
Q 1038 2656 1286 2365 
Q 1534 2075 1959 2075 
z
" transform="scale(0.015625)"/>
      <path id="DejaVuSans-2c" d="M 750 794 
L 1409 794 
L 1409 256 
L 897 -744 
L 494 -744 
L 750 256 
L 750 794 
z
" transform="scale(0.015625)"/>
      <path id="DejaVuSans-20" transform="scale(0.015625)"/>
      <path id="DejaVuSans-36" d="M 2113 2584 
Q 1688 2584 1439 2293 
Q 1191 2003 1191 1497 
Q 1191 994 1439 701 
Q 1688 409 2113 409 
Q 2538 409 2786 701 
Q 3034 994 3034 1497 
Q 3034 2003 2786 2293 
Q 2538 2584 2113 2584 
z
M 3366 4563 
L 3366 3988 
Q 3128 4100 2886 4159 
Q 2644 4219 2406 4219 
Q 1781 4219 1451 3797 
Q 1122 3375 1075 2522 
Q 1259 2794 1537 2939 
Q 1816 3084 2150 3084 
Q 2853 3084 3261 2657 
Q 3669 2231 3669 1497 
Q 3669 778 3244 343 
Q 2819 -91 2113 -91 
Q 1303 -91 875 529 
Q 447 1150 447 2328 
Q 447 3434 972 4092 
Q 1497 4750 2381 4750 
Q 2619 4750 2861 4703 
Q 3103 4656 3366 4563 
z
" transform="scale(0.015625)"/>
      <path id="DejaVuSans-38" d="M 2034 2216 
Q 1584 2216 1326 1975 
Q 1069 1734 1069 1313 
Q 1069 891 1326 650 
Q 1584 409 2034 409 
Q 2484 409 2743 651 
Q 3003 894 3003 1313 
Q 3003 1734 2745 1975 
Q 2488 2216 2034 2216 
z
M 1403 2484 
Q 997 2584 770 2862 
Q 544 3141 544 3541 
Q 544 4100 942 4425 
Q 1341 4750 2034 4750 
Q 2731 4750 3128 4425 
Q 3525 4100 3525 3541 
Q 3525 3141 3298 2862 
Q 3072 2584 2669 2484 
Q 3125 2378 3379 2068 
Q 3634 1759 3634 1313 
Q 3634 634 3220 271 
Q 2806 -91 2034 -91 
Q 1263 -91 848 271 
Q 434 634 434 1313 
Q 434 1759 690 2068 
Q 947 2378 1403 2484 
z
M 1172 3481 
Q 1172 3119 1398 2916 
Q 1625 2713 2034 2713 
Q 2441 2713 2670 2916 
Q 2900 3119 2900 3481 
Q 2900 3844 2670 4047 
Q 2441 4250 2034 4250 
Q 1625 4250 1398 4047 
Q 1172 3844 1172 3481 
z
" transform="scale(0.015625)"/>
      <path id="DejaVuSans-69" d="M 603 3500 
L 1178 3500 
L 1178 0 
L 603 0 
L 603 3500 
z
M 603 4863 
L 1178 4863 
L 1178 4134 
L 603 4134 
L 603 4863 
z
" transform="scale(0.015625)"/>
      <path id="DejaVuSans-6e" d="M 3513 2113 
L 3513 0 
L 2938 0 
L 2938 2094 
Q 2938 2591 2744 2837 
Q 2550 3084 2163 3084 
Q 1697 3084 1428 2787 
Q 1159 2491 1159 1978 
L 1159 0 
L 581 0 
L 581 3500 
L 1159 3500 
L 1159 2956 
Q 1366 3272 1645 3428 
Q 1925 3584 2291 3584 
Q 2894 3584 3203 3211 
Q 3513 2838 3513 2113 
z
" transform="scale(0.015625)"/>
      <path id="DejaVuSans-73" d="M 2834 3397 
L 2834 2853 
Q 2591 2978 2328 3040 
Q 2066 3103 1784 3103 
Q 1356 3103 1142 2972 
Q 928 2841 928 2578 
Q 928 2378 1081 2264 
Q 1234 2150 1697 2047 
L 1894 2003 
Q 2506 1872 2764 1633 
Q 3022 1394 3022 966 
Q 3022 478 2636 193 
Q 2250 -91 1575 -91 
Q 1294 -91 989 -36 
Q 684 19 347 128 
L 347 722 
Q 666 556 975 473 
Q 1284 391 1588 391 
Q 1994 391 2212 530 
Q 2431 669 2431 922 
Q 2431 1156 2273 1281 
Q 2116 1406 1581 1522 
L 1381 1569 
Q 847 1681 609 1914 
Q 372 2147 372 2553 
Q 372 3047 722 3315 
Q 1072 3584 1716 3584 
Q 2034 3584 2315 3537 
Q 2597 3491 2834 3397 
z
" transform="scale(0.015625)"/>
      <path id="DejaVuSans-74" d="M 1172 4494 
L 1172 3500 
L 2356 3500 
L 2356 3053 
L 1172 3053 
L 1172 1153 
Q 1172 725 1289 603 
Q 1406 481 1766 481 
L 2356 481 
L 2356 0 
L 1766 0 
Q 1100 0 847 248 
Q 594 497 594 1153 
L 594 3053 
L 172 3053 
L 172 3500 
L 594 3500 
L 594 4494 
L 1172 4494 
z
" transform="scale(0.015625)"/>
      <path id="DejaVuSans-61" d="M 2194 1759 
Q 1497 1759 1228 1600 
Q 959 1441 959 1056 
Q 959 750 1161 570 
Q 1363 391 1709 391 
Q 2188 391 2477 730 
Q 2766 1069 2766 1631 
L 2766 1759 
L 2194 1759 
z
M 3341 1997 
L 3341 0 
L 2766 0 
L 2766 531 
Q 2569 213 2275 61 
Q 1981 -91 1556 -91 
Q 1019 -91 701 211 
Q 384 513 384 1019 
Q 384 1609 779 1909 
Q 1175 2209 1959 2209 
L 2766 2209 
L 2766 2266 
Q 2766 2663 2505 2880 
Q 2244 3097 1772 3097 
Q 1472 3097 1187 3025 
Q 903 2953 641 2809 
L 641 3341 
Q 956 3463 1253 3523 
Q 1550 3584 1831 3584 
Q 2591 3584 2966 3190 
Q 3341 2797 3341 1997 
z
" transform="scale(0.015625)"/>
      <path id="DejaVuSans-63" d="M 3122 3366 
L 3122 2828 
Q 2878 2963 2633 3030 
Q 2388 3097 2138 3097 
Q 1578 3097 1268 2742 
Q 959 2388 959 1747 
Q 959 1106 1268 751 
Q 1578 397 2138 397 
Q 2388 397 2633 464 
Q 2878 531 3122 666 
L 3122 134 
Q 2881 22 2623 -34 
Q 2366 -91 2075 -91 
Q 1284 -91 818 406 
Q 353 903 353 1747 
Q 353 2603 823 3093 
Q 1294 3584 2113 3584 
Q 2378 3584 2631 3529 
Q 2884 3475 3122 3366 
z
" transform="scale(0.015625)"/>
      <path id="DejaVuSans-65" d="M 3597 1894 
L 3597 1613 
L 953 1613 
Q 991 1019 1311 708 
Q 1631 397 2203 397 
Q 2534 397 2845 478 
Q 3156 559 3463 722 
L 3463 178 
Q 3153 47 2828 -22 
Q 2503 -91 2169 -91 
Q 1331 -91 842 396 
Q 353 884 353 1716 
Q 353 2575 817 3079 
Q 1281 3584 2069 3584 
Q 2775 3584 3186 3129 
Q 3597 2675 3597 1894 
z
M 3022 2063 
Q 3016 2534 2758 2815 
Q 2500 3097 2075 3097 
Q 1594 3097 1305 2825 
Q 1016 2553 972 2059 
L 3022 2063 
z
" transform="scale(0.015625)"/>
     </defs>
     <use xlink:href="#DejaVuSans-31"/>
     <use xlink:href="#DejaVuSans-39" x="63.623047"/>
     <use xlink:href="#DejaVuSans-35" x="127.246094"/>
     <use xlink:href="#DejaVuSans-2c" x="190.869141"/>
     <use xlink:href="#DejaVuSans-20" x="222.65625"/>
     <use xlink:href="#DejaVuSans-31" x="254.443359"/>
     <use xlink:href="#DejaVuSans-36" x="318.066406"/>
     <use xlink:href="#DejaVuSans-35" x="381.689453"/>
     <use xlink:href="#DejaVuSans-2c" x="445.3125"/>
     <use xlink:href="#DejaVuSans-20" x="477.099609"/>
     <use xlink:href="#DejaVuSans-31" x="508.886719"/>
     <use xlink:href="#DejaVuSans-33" x="572.509766"/>
     <use xlink:href="#DejaVuSans-35" x="636.132812"/>
     <use xlink:href="#DejaVuSans-2c" x="699.755859"/>
     <use xlink:href="#DejaVuSans-20" x="731.542969"/>
     <use xlink:href="#DejaVuSans-31" x="763.330078"/>
     <use xlink:href="#DejaVuSans-30" x="826.953125"/>
     <use xlink:href="#DejaVuSans-35" x="890.576172"/>
     <use xlink:href="#DejaVuSans-2c" x="954.199219"/>
     <use xlink:href="#DejaVuSans-20" x="985.986328"/>
     <use xlink:href="#DejaVuSans-37" x="1017.773438"/>
     <use xlink:href="#DejaVuSans-35" x="1081.396484"/>
     <use xlink:href="#DejaVuSans-2c" x="1145.019531"/>
     <use xlink:href="#DejaVuSans-20" x="1176.806641"/>
     <use xlink:href="#DejaVuSans-33" x="1208.59375"/>
     <use xlink:href="#DejaVuSans-30" x="1272.216797"/>
     <use xlink:href="#DejaVuSans-30" x="1335.839844"/>
     <use xlink:href="#DejaVuSans-2c" x="1399.462891"/>
     <use xlink:href="#DejaVuSans-20" x="1431.25"/>
     <use xlink:href="#DejaVuSans-34" x="1463.037109"/>
     <use xlink:href="#DejaVuSans-35" x="1526.660156"/>
     <use xlink:href="#DejaVuSans-2c" x="1590.283203"/>
     <use xlink:href="#DejaVuSans-20" x="1622.070312"/>
     <use xlink:href="#DejaVuSans-32" x="1653.857422"/>
     <use xlink:href="#DejaVuSans-31" x="1717.480469"/>
     <use xlink:href="#DejaVuSans-30" x="1781.103516"/>
     <use xlink:href="#DejaVuSans-2c" x="1844.726562"/>
     <use xlink:href="#DejaVuSans-20" x="1876.513672"/>
     <use xlink:href="#DejaVuSans-31" x="1908.300781"/>
     <use xlink:href="#DejaVuSans-38" x="1971.923828"/>
     <use xlink:href="#DejaVuSans-30" x="2035.546875"/>
     <use xlink:href="#DejaVuSans-2c" x="2099.169922"/>
     <use xlink:href="#DejaVuSans-20" x="2130.957031"/>
     <use xlink:href="#DejaVuSans-31" x="2162.744141"/>
     <use xlink:href="#DejaVuSans-35" x="2226.367188"/>
     <use xlink:href="#DejaVuSans-30" x="2289.990234"/>
     <use xlink:href="#DejaVuSans-2c" x="2353.613281"/>
     <use xlink:href="#DejaVuSans-20" x="2385.400391"/>
     <use xlink:href="#DejaVuSans-31" x="2417.1875"/>
     <use xlink:href="#DejaVuSans-32" x="2480.810547"/>
     <use xlink:href="#DejaVuSans-30" x="2544.433594"/>
     <use xlink:href="#DejaVuSans-2c" x="2608.056641"/>
     <use xlink:href="#DejaVuSans-20" x="2639.84375"/>
     <use xlink:href="#DejaVuSans-39" x="2671.630859"/>
     <use xlink:href="#DejaVuSans-30" x="2735.253906"/>
     <use xlink:href="#DejaVuSans-2c" x="2798.876953"/>
     <use xlink:href="#DejaVuSans-20" x="2830.664062"/>
     <use xlink:href="#DejaVuSans-36" x="2862.451172"/>
     <use xlink:href="#DejaVuSans-30" x="2926.074219"/>
     <use xlink:href="#DejaVuSans-2c" x="2989.697266"/>
     <use xlink:href="#DejaVuSans-20" x="3021.484375"/>
     <use xlink:href="#DejaVuSans-33" x="3053.271484"/>
     <use xlink:href="#DejaVuSans-30" x="3116.894531"/>
     <use xlink:href="#DejaVuSans-2c" x="3180.517578"/>
     <use xlink:href="#DejaVuSans-20" x="3212.304688"/>
     <use xlink:href="#DejaVuSans-32" x="3244.091797"/>
     <use xlink:href="#DejaVuSans-35" x="3307.714844"/>
     <use xlink:href="#DejaVuSans-35" x="3371.337891"/>
     <use xlink:href="#DejaVuSans-20" x="3434.960938"/>
     <use xlink:href="#DejaVuSans-69" x="3466.748047"/>
     <use xlink:href="#DejaVuSans-6e" x="3494.53125"/>
     <use xlink:href="#DejaVuSans-73" x="3557.910156"/>
     <use xlink:href="#DejaVuSans-74" x="3610.009766"/>
     <use xlink:href="#DejaVuSans-61" x="3649.21875"/>
     <use xlink:href="#DejaVuSans-6e" x="3710.498047"/>
     <use xlink:href="#DejaVuSans-63" x="3773.876953"/>
     <use xlink:href="#DejaVuSans-65" x="3828.857422"/>
     <use xlink:href="#DejaVuSans-73" x="3890.380859"/>
    </g>
    <!-- target Df: 1e-8 -->
    <g transform="translate(22.69 313.762403) scale(0.080666 -0.080666)">
     <defs>
      <path id="DejaVuSans-72" d="M 2631 2963 
Q 2534 3019 2420 3045 
Q 2306 3072 2169 3072 
Q 1681 3072 1420 2755 
Q 1159 2438 1159 1844 
L 1159 0 
L 581 0 
L 581 3500 
L 1159 3500 
L 1159 2956 
Q 1341 3275 1631 3429 
Q 1922 3584 2338 3584 
Q 2397 3584 2469 3576 
Q 2541 3569 2628 3553 
L 2631 2963 
z
" transform="scale(0.015625)"/>
      <path id="DejaVuSans-67" d="M 2906 1791 
Q 2906 2416 2648 2759 
Q 2391 3103 1925 3103 
Q 1463 3103 1205 2759 
Q 947 2416 947 1791 
Q 947 1169 1205 825 
Q 1463 481 1925 481 
Q 2391 481 2648 825 
Q 2906 1169 2906 1791 
z
M 3481 434 
Q 3481 -459 3084 -895 
Q 2688 -1331 1869 -1331 
Q 1566 -1331 1297 -1286 
Q 1028 -1241 775 -1147 
L 775 -588 
Q 1028 -725 1275 -790 
Q 1522 -856 1778 -856 
Q 2344 -856 2625 -561 
Q 2906 -266 2906 331 
L 2906 616 
Q 2728 306 2450 153 
Q 2172 0 1784 0 
Q 1141 0 747 490 
Q 353 981 353 1791 
Q 353 2603 747 3093 
Q 1141 3584 1784 3584 
Q 2172 3584 2450 3431 
Q 2728 3278 2906 2969 
L 2906 3500 
L 3481 3500 
L 3481 434 
z
" transform="scale(0.015625)"/>
      <path id="DejaVuSans-44" d="M 1259 4147 
L 1259 519 
L 2022 519 
Q 2988 519 3436 956 
Q 3884 1394 3884 2338 
Q 3884 3275 3436 3711 
Q 2988 4147 2022 4147 
L 1259 4147 
z
M 628 4666 
L 1925 4666 
Q 3281 4666 3915 4102 
Q 4550 3538 4550 2338 
Q 4550 1131 3912 565 
Q 3275 0 1925 0 
L 628 0 
L 628 4666 
z
" transform="scale(0.015625)"/>
      <path id="DejaVuSans-66" d="M 2375 4863 
L 2375 4384 
L 1825 4384 
Q 1516 4384 1395 4259 
Q 1275 4134 1275 3809 
L 1275 3500 
L 2222 3500 
L 2222 3053 
L 1275 3053 
L 1275 0 
L 697 0 
L 697 3053 
L 147 3053 
L 147 3500 
L 697 3500 
L 697 3744 
Q 697 4328 969 4595 
Q 1241 4863 1831 4863 
L 2375 4863 
z
" transform="scale(0.015625)"/>
      <path id="DejaVuSans-3a" d="M 750 794 
L 1409 794 
L 1409 0 
L 750 0 
L 750 794 
z
M 750 3309 
L 1409 3309 
L 1409 2516 
L 750 2516 
L 750 3309 
z
" transform="scale(0.015625)"/>
      <path id="DejaVuSans-2d" d="M 313 2009 
L 1997 2009 
L 1997 1497 
L 313 1497 
L 313 2009 
z
" transform="scale(0.015625)"/>
     </defs>
     <use xlink:href="#DejaVuSans-74"/>
     <use xlink:href="#DejaVuSans-61" x="39.208984"/>
     <use xlink:href="#DejaVuSans-72" x="100.488281"/>
     <use xlink:href="#DejaVuSans-67" x="139.851562"/>
     <use xlink:href="#DejaVuSans-65" x="203.328125"/>
     <use xlink:href="#DejaVuSans-74" x="264.851562"/>
     <use xlink:href="#DejaVuSans-20" x="304.060547"/>
     <use xlink:href="#DejaVuSans-44" x="335.847656"/>
     <use xlink:href="#DejaVuSans-66" x="412.849609"/>
     <use xlink:href="#DejaVuSans-3a" x="444.429688"/>
     <use xlink:href="#DejaVuSans-20" x="478.121094"/>
     <use xlink:href="#DejaVuSans-31" x="509.908203"/>
     <use xlink:href="#DejaVuSans-65" x="573.53125"/>
     <use xlink:href="#DejaVuSans-2d" x="635.054688"/>
     <use xlink:href="#DejaVuSans-38" x="671.138672"/>
    </g>
   </g>
   <g id="text_12">
    <!-- v2.7.3 -->
    <g style="fill: #808080" transform="translate(225.396 310.87745) scale(0.08 -0.08)">
     <defs>
      <path id="DejaVuSans-76" d="M 191 3500 
L 800 3500 
L 1894 563 
L 2988 3500 
L 3597 3500 
L 2284 0 
L 1503 0 
L 191 3500 
z
" transform="scale(0.015625)"/>
      <path id="DejaVuSans-2e" d="M 684 794 
L 1344 794 
L 1344 0 
L 684 0 
L 684 794 
z
" transform="scale(0.015625)"/>
     </defs>
     <use xlink:href="#DejaVuSans-76"/>
     <use xlink:href="#DejaVuSans-32" x="59.179688"/>
     <use xlink:href="#DejaVuSans-2e" x="122.802734"/>
     <use xlink:href="#DejaVuSans-37" x="154.589844"/>
     <use xlink:href="#DejaVuSans-2e" x="218.212891"/>
     <use xlink:href="#DejaVuSans-33" x="250"/>
    </g>
   </g>
   <g id="text_13">
    <!-- 24 Lunacek bi-Rastrigin -->
    <g transform="translate(110.725437 19.56) scale(0.216 -0.216)">
     <defs>
      <path id="DejaVuSans-4c" d="M 628 4666 
L 1259 4666 
L 1259 531 
L 3531 531 
L 3531 0 
L 628 0 
L 628 4666 
z
" transform="scale(0.015625)"/>
      <path id="DejaVuSans-75" d="M 544 1381 
L 544 3500 
L 1119 3500 
L 1119 1403 
Q 1119 906 1312 657 
Q 1506 409 1894 409 
Q 2359 409 2629 706 
Q 2900 1003 2900 1516 
L 2900 3500 
L 3475 3500 
L 3475 0 
L 2900 0 
L 2900 538 
Q 2691 219 2414 64 
Q 2138 -91 1772 -91 
Q 1169 -91 856 284 
Q 544 659 544 1381 
z
M 1991 3584 
L 1991 3584 
z
" transform="scale(0.015625)"/>
      <path id="DejaVuSans-6b" d="M 581 4863 
L 1159 4863 
L 1159 1991 
L 2875 3500 
L 3609 3500 
L 1753 1863 
L 3688 0 
L 2938 0 
L 1159 1709 
L 1159 0 
L 581 0 
L 581 4863 
z
" transform="scale(0.015625)"/>
      <path id="DejaVuSans-62" d="M 3116 1747 
Q 3116 2381 2855 2742 
Q 2594 3103 2138 3103 
Q 1681 3103 1420 2742 
Q 1159 2381 1159 1747 
Q 1159 1113 1420 752 
Q 1681 391 2138 391 
Q 2594 391 2855 752 
Q 3116 1113 3116 1747 
z
M 1159 2969 
Q 1341 3281 1617 3432 
Q 1894 3584 2278 3584 
Q 2916 3584 3314 3078 
Q 3713 2572 3713 1747 
Q 3713 922 3314 415 
Q 2916 -91 2278 -91 
Q 1894 -91 1617 61 
Q 1341 213 1159 525 
L 1159 0 
L 581 0 
L 581 4863 
L 1159 4863 
L 1159 2969 
z
" transform="scale(0.015625)"/>
      <path id="DejaVuSans-52" d="M 2841 2188 
Q 3044 2119 3236 1894 
Q 3428 1669 3622 1275 
L 4263 0 
L 3584 0 
L 2988 1197 
Q 2756 1666 2539 1819 
Q 2322 1972 1947 1972 
L 1259 1972 
L 1259 0 
L 628 0 
L 628 4666 
L 2053 4666 
Q 2853 4666 3247 4331 
Q 3641 3997 3641 3322 
Q 3641 2881 3436 2590 
Q 3231 2300 2841 2188 
z
M 1259 4147 
L 1259 2491 
L 2053 2491 
Q 2509 2491 2742 2702 
Q 2975 2913 2975 3322 
Q 2975 3731 2742 3939 
Q 2509 4147 2053 4147 
L 1259 4147 
z
" transform="scale(0.015625)"/>
     </defs>
     <use xlink:href="#DejaVuSans-32"/>
     <use xlink:href="#DejaVuSans-34" x="63.623047"/>
     <use xlink:href="#DejaVuSans-20" x="127.246094"/>
     <use xlink:href="#DejaVuSans-4c" x="159.033203"/>
     <use xlink:href="#DejaVuSans-75" x="212.996094"/>
     <use xlink:href="#DejaVuSans-6e" x="276.375"/>
     <use xlink:href="#DejaVuSans-61" x="339.753906"/>
     <use xlink:href="#DejaVuSans-63" x="401.033203"/>
     <use xlink:href="#DejaVuSans-65" x="456.013672"/>
     <use xlink:href="#DejaVuSans-6b" x="517.537109"/>
     <use xlink:href="#DejaVuSans-20" x="575.447266"/>
     <use xlink:href="#DejaVuSans-62" x="607.234375"/>
     <use xlink:href="#DejaVuSans-69" x="670.710938"/>
     <use xlink:href="#DejaVuSans-2d" x="698.494141"/>
     <use xlink:href="#DejaVuSans-52" x="734.578125"/>
     <use xlink:href="#DejaVuSans-61" x="801.810547"/>
     <use xlink:href="#DejaVuSans-73" x="863.089844"/>
     <use xlink:href="#DejaVuSans-74" x="915.189453"/>
     <use xlink:href="#DejaVuSans-72" x="954.398438"/>
     <use xlink:href="#DejaVuSans-69" x="995.511719"/>
     <use xlink:href="#DejaVuSans-67" x="1023.294922"/>
     <use xlink:href="#DejaVuSans-69" x="1086.771484"/>
     <use xlink:href="#DejaVuSans-6e" x="1114.554688"/>
    </g>
   </g>
   <g id="legend_1">
    <g id="patch_7">
     <path d="M 29.252696 211.955201 
L 130.000326 211.955201 
Q 131.875382 211.955201 131.875382 210.080146 
L 131.875382 32.122696 
Q 131.875382 30.24764 130.000326 30.24764 
L 29.252696 30.24764 
Q 27.37764 30.24764 27.37764 32.122696 
L 27.37764 210.080146 
Q 27.37764 211.955201 29.252696 211.955201 
z
" style="fill: #ffffff; opacity: 0.2; stroke: #cccccc; stroke-linejoin: miter"/>
    </g>
    <g id="line2d_61">
     <path d="M 31.127751 37.840151 
L 40.503031 37.840151 
L 49.87831 37.840151 
" style="fill: none; stroke: #0d0887; stroke-width: 4; stroke-linecap: square"/>
     <defs>
      <path id="md86d140d6f" d="M 0 6 
C 1.591219 6 3.117479 5.367802 4.242641 4.242641 
C 5.367802 3.117479 6 1.591219 6 0 
C 6 -1.591219 5.367802 -3.117479 4.242641 -4.242641 
C 3.117479 -5.367802 1.591219 -6 0 -6 
C -1.591219 -6 -3.117479 -5.367802 -4.242641 -4.242641 
C -5.367802 -3.117479 -6 -1.591219 -6 0 
C -6 1.591219 -5.367802 3.117479 -4.242641 4.242641 
C -3.117479 5.367802 -1.591219 6 0 6 
z
" style="stroke: #0d0887; stroke-width: 3"/>
     </defs>
     <g>
      <use xlink:href="#md86d140d6f" x="40.503031" y="37.840151" style="fill-opacity: 0; stroke: #0d0887; stroke-width: 3"/>
     </g>
    </g>
    <g id="text_14">
     <!-- 0.0 uobyqa of  -->
     <g transform="translate(57.378533 41.121499) scale(0.093753 -0.093753)">
      <defs>
       <path id="DejaVuSans-6f" d="M 1959 3097 
Q 1497 3097 1228 2736 
Q 959 2375 959 1747 
Q 959 1119 1226 758 
Q 1494 397 1959 397 
Q 2419 397 2687 759 
Q 2956 1122 2956 1747 
Q 2956 2369 2687 2733 
Q 2419 3097 1959 3097 
z
M 1959 3584 
Q 2709 3584 3137 3096 
Q 3566 2609 3566 1747 
Q 3566 888 3137 398 
Q 2709 -91 1959 -91 
Q 1206 -91 779 398 
Q 353 888 353 1747 
Q 353 2609 779 3096 
Q 1206 3584 1959 3584 
z
" transform="scale(0.015625)"/>
       <path id="DejaVuSans-79" d="M 2059 -325 
Q 1816 -950 1584 -1140 
Q 1353 -1331 966 -1331 
L 506 -1331 
L 506 -850 
L 844 -850 
Q 1081 -850 1212 -737 
Q 1344 -625 1503 -206 
L 1606 56 
L 191 3500 
L 800 3500 
L 1894 763 
L 2988 3500 
L 3597 3500 
L 2059 -325 
z
" transform="scale(0.015625)"/>
       <path id="DejaVuSans-71" d="M 947 1747 
Q 947 1113 1208 752 
Q 1469 391 1925 391 
Q 2381 391 2643 752 
Q 2906 1113 2906 1747 
Q 2906 2381 2643 2742 
Q 2381 3103 1925 3103 
Q 1469 3103 1208 2742 
Q 947 2381 947 1747 
z
M 2906 525 
Q 2725 213 2448 61 
Q 2172 -91 1784 -91 
Q 1150 -91 751 415 
Q 353 922 353 1747 
Q 353 2572 751 3078 
Q 1150 3584 1784 3584 
Q 2172 3584 2448 3432 
Q 2725 3281 2906 2969 
L 2906 3500 
L 3481 3500 
L 3481 -1331 
L 2906 -1331 
L 2906 525 
z
" transform="scale(0.015625)"/>
      </defs>
      <use xlink:href="#DejaVuSans-30"/>
      <use xlink:href="#DejaVuSans-2e" x="63.623047"/>
      <use xlink:href="#DejaVuSans-30" x="95.410156"/>
      <use xlink:href="#DejaVuSans-20" x="159.033203"/>
      <use xlink:href="#DejaVuSans-75" x="190.820312"/>
      <use xlink:href="#DejaVuSans-6f" x="254.199219"/>
      <use xlink:href="#DejaVuSans-62" x="315.380859"/>
      <use xlink:href="#DejaVuSans-79" x="378.857422"/>
      <use xlink:href="#DejaVuSans-71" x="438.037109"/>
      <use xlink:href="#DejaVuSans-61" x="501.513672"/>
      <use xlink:href="#DejaVuSans-20" x="562.792969"/>
      <use xlink:href="#DejaVuSans-6f" x="594.580078"/>
      <use xlink:href="#DejaVuSans-66" x="655.761719"/>
      <use xlink:href="#DejaVuSans-20" x="690.966797"/>
     </g>
    </g>
    <g id="line2d_62">
     <path d="M 31.127751 51.601303 
L 40.503031 51.601303 
L 49.87831 51.601303 
" style="fill: none; stroke: #38049a; stroke-width: 3.666667; stroke-linecap: square"/>
     <defs>
      <path id="md71d7d13dc" d="M 0 6 
C 1.591219 6 3.117479 5.367802 4.242641 4.242641 
C 5.367802 3.117479 6 1.591219 6 0 
C 6 -1.591219 5.367802 -3.117479 4.242641 -4.242641 
C 3.117479 -5.367802 1.591219 -6 0 -6 
C -1.591219 -6 -3.117479 -5.367802 -4.242641 -4.242641 
C -5.367802 -3.117479 -6 -1.591219 -6 0 
C -6 1.591219 -5.367802 3.117479 -4.242641 4.242641 
C -3.117479 5.367802 -1.591219 6 0 6 
z
" style="stroke: #38049a; stroke-width: 2.5"/>
     </defs>
     <g>
      <use xlink:href="#md71d7d13dc" x="40.503031" y="51.601303" style="fill-opacity: 0; stroke: #38049a; stroke-width: 2.5"/>
     </g>
    </g>
    <g id="text_15">
     <!-- 0.02 uobyqa of -->
     <g transform="translate(57.378533 54.882651) scale(0.093753 -0.093753)">
      <use xlink:href="#DejaVuSans-30"/>
      <use xlink:href="#DejaVuSans-2e" x="63.623047"/>
      <use xlink:href="#DejaVuSans-30" x="95.410156"/>
      <use xlink:href="#DejaVuSans-32" x="159.033203"/>
      <use xlink:href="#DejaVuSans-20" x="222.65625"/>
      <use xlink:href="#DejaVuSans-75" x="254.443359"/>
      <use xlink:href="#DejaVuSans-6f" x="317.822266"/>
      <use xlink:href="#DejaVuSans-62" x="379.003906"/>
      <use xlink:href="#DejaVuSans-79" x="442.480469"/>
      <use xlink:href="#DejaVuSans-71" x="501.660156"/>
      <use xlink:href="#DejaVuSans-61" x="565.136719"/>
      <use xlink:href="#DejaVuSans-20" x="626.416016"/>
      <use xlink:href="#DejaVuSans-6f" x="658.203125"/>
      <use xlink:href="#DejaVuSans-66" x="719.384766"/>
     </g>
    </g>
    <g id="line2d_63">
     <path d="M 31.127751 65.362455 
L 40.503031 65.362455 
L 49.87831 65.362455 
" style="fill: none; stroke: #5b01a5; stroke-width: 3.333333; stroke-linecap: square"/>
     <defs>
      <path id="m2873fdd881" d="M 0 6 
C 1.591219 6 3.117479 5.367802 4.242641 4.242641 
C 5.367802 3.117479 6 1.591219 6 0 
C 6 -1.591219 5.367802 -3.117479 4.242641 -4.242641 
C 3.117479 -5.367802 1.591219 -6 0 -6 
C -1.591219 -6 -3.117479 -5.367802 -4.242641 -4.242641 
C -5.367802 -3.117479 -6 -1.591219 -6 0 
C -6 1.591219 -5.367802 3.117479 -4.242641 4.242641 
C -3.117479 5.367802 -1.591219 6 0 6 
z
" style="stroke: #5b01a5; stroke-width: 2"/>
     </defs>
     <g>
      <use xlink:href="#m2873fdd881" x="40.503031" y="65.362455" style="fill-opacity: 0; stroke: #5b01a5; stroke-width: 2"/>
     </g>
    </g>
    <g id="text_16">
     <!-- 0.05 uobyqa of -->
     <g transform="translate(57.378533 68.643803) scale(0.093753 -0.093753)">
      <use xlink:href="#DejaVuSans-30"/>
      <use xlink:href="#DejaVuSans-2e" x="63.623047"/>
      <use xlink:href="#DejaVuSans-30" x="95.410156"/>
      <use xlink:href="#DejaVuSans-35" x="159.033203"/>
      <use xlink:href="#DejaVuSans-20" x="222.65625"/>
      <use xlink:href="#DejaVuSans-75" x="254.443359"/>
      <use xlink:href="#DejaVuSans-6f" x="317.822266"/>
      <use xlink:href="#DejaVuSans-62" x="379.003906"/>
      <use xlink:href="#DejaVuSans-79" x="442.480469"/>
      <use xlink:href="#DejaVuSans-71" x="501.660156"/>
      <use xlink:href="#DejaVuSans-61" x="565.136719"/>
      <use xlink:href="#DejaVuSans-20" x="626.416016"/>
      <use xlink:href="#DejaVuSans-6f" x="658.203125"/>
      <use xlink:href="#DejaVuSans-66" x="719.384766"/>
     </g>
    </g>
    <g id="line2d_64">
     <path d="M 31.127751 79.123607 
L 40.503031 79.123607 
L 49.87831 79.123607 
" style="fill: none; stroke: #7b02a8; stroke-width: 3; stroke-linecap: square"/>
     <defs>
      <path id="m1de160718d" d="M 0 6 
C 1.591219 6 3.117479 5.367802 4.242641 4.242641 
C 5.367802 3.117479 6 1.591219 6 0 
C 6 -1.591219 5.367802 -3.117479 4.242641 -4.242641 
C 3.117479 -5.367802 1.591219 -6 0 -6 
C -1.591219 -6 -3.117479 -5.367802 -4.242641 -4.242641 
C -5.367802 -3.117479 -6 -1.591219 -6 0 
C -6 1.591219 -5.367802 3.117479 -4.242641 4.242641 
C -3.117479 5.367802 -1.591219 6 0 6 
z
" style="stroke: #7b02a8; stroke-width: 1.5"/>
     </defs>
     <g>
      <use xlink:href="#m1de160718d" x="40.503031" y="79.123607" style="fill-opacity: 0; stroke: #7b02a8; stroke-width: 1.5"/>
     </g>
    </g>
    <g id="text_17">
     <!-- 0.1 uobyqa of  -->
     <g transform="translate(57.378533 82.404955) scale(0.093753 -0.093753)">
      <use xlink:href="#DejaVuSans-30"/>
      <use xlink:href="#DejaVuSans-2e" x="63.623047"/>
      <use xlink:href="#DejaVuSans-31" x="95.410156"/>
      <use xlink:href="#DejaVuSans-20" x="159.033203"/>
      <use xlink:href="#DejaVuSans-75" x="190.820312"/>
      <use xlink:href="#DejaVuSans-6f" x="254.199219"/>
      <use xlink:href="#DejaVuSans-62" x="315.380859"/>
      <use xlink:href="#DejaVuSans-79" x="378.857422"/>
      <use xlink:href="#DejaVuSans-71" x="438.037109"/>
      <use xlink:href="#DejaVuSans-61" x="501.513672"/>
      <use xlink:href="#DejaVuSans-20" x="562.792969"/>
      <use xlink:href="#DejaVuSans-6f" x="594.580078"/>
      <use xlink:href="#DejaVuSans-66" x="655.761719"/>
      <use xlink:href="#DejaVuSans-20" x="690.966797"/>
     </g>
    </g>
    <g id="line2d_65">
     <path d="M 31.127751 92.88476 
L 40.503031 92.88476 
L 49.87831 92.88476 
" style="fill: none; stroke: #99159f; stroke-width: 2.666667; stroke-linecap: square"/>
     <defs>
      <path id="m8f49dae8d1" d="M 0 6 
C 1.591219 6 3.117479 5.367802 4.242641 4.242641 
C 5.367802 3.117479 6 1.591219 6 0 
C 6 -1.591219 5.367802 -3.117479 4.242641 -4.242641 
C 3.117479 -5.367802 1.591219 -6 0 -6 
C -1.591219 -6 -3.117479 -5.367802 -4.242641 -4.242641 
C -5.367802 -3.117479 -6 -1.591219 -6 0 
C -6 1.591219 -5.367802 3.117479 -4.242641 4.242641 
C -3.117479 5.367802 -1.591219 6 0 6 
z
" style="stroke: #99159f"/>
     </defs>
     <g>
      <use xlink:href="#m8f49dae8d1" x="40.503031" y="92.88476" style="fill-opacity: 0; stroke: #99159f"/>
     </g>
    </g>
    <g id="text_18">
     <!-- 0.2 uobyqa of  -->
     <g transform="translate(57.378533 96.166107) scale(0.093753 -0.093753)">
      <use xlink:href="#DejaVuSans-30"/>
      <use xlink:href="#DejaVuSans-2e" x="63.623047"/>
      <use xlink:href="#DejaVuSans-32" x="95.410156"/>
      <use xlink:href="#DejaVuSans-20" x="159.033203"/>
      <use xlink:href="#DejaVuSans-75" x="190.820312"/>
      <use xlink:href="#DejaVuSans-6f" x="254.199219"/>
      <use xlink:href="#DejaVuSans-62" x="315.380859"/>
      <use xlink:href="#DejaVuSans-79" x="378.857422"/>
      <use xlink:href="#DejaVuSans-71" x="438.037109"/>
      <use xlink:href="#DejaVuSans-61" x="501.513672"/>
      <use xlink:href="#DejaVuSans-20" x="562.792969"/>
      <use xlink:href="#DejaVuSans-6f" x="594.580078"/>
      <use xlink:href="#DejaVuSans-66" x="655.761719"/>
      <use xlink:href="#DejaVuSans-20" x="690.966797"/>
     </g>
    </g>
    <g id="line2d_66">
     <path d="M 31.127751 106.645912 
L 40.503031 106.645912 
L 49.87831 106.645912 
" style="fill: none; stroke: #b32c8e; stroke-width: 2.333333; stroke-linecap: square"/>
     <defs>
      <path id="mf6c3c13675" d="M 0 6 
C 1.591219 6 3.117479 5.367802 4.242641 4.242641 
C 5.367802 3.117479 6 1.591219 6 0 
C 6 -1.591219 5.367802 -3.117479 4.242641 -4.242641 
C 3.117479 -5.367802 1.591219 -6 0 -6 
C -1.591219 -6 -3.117479 -5.367802 -4.242641 -4.242641 
C -5.367802 -3.117479 -6 -1.591219 -6 0 
C -6 1.591219 -5.367802 3.117479 -4.242641 4.242641 
C -3.117479 5.367802 -1.591219 6 0 6 
z
" style="stroke: #b32c8e"/>
     </defs>
     <g>
      <use xlink:href="#mf6c3c13675" x="40.503031" y="106.645912" style="fill-opacity: 0; stroke: #b32c8e"/>
     </g>
    </g>
    <g id="text_19">
     <!-- 0.3 uobyqa of  -->
     <g transform="translate(57.378533 109.92726) scale(0.093753 -0.093753)">
      <use xlink:href="#DejaVuSans-30"/>
      <use xlink:href="#DejaVuSans-2e" x="63.623047"/>
      <use xlink:href="#DejaVuSans-33" x="95.410156"/>
      <use xlink:href="#DejaVuSans-20" x="159.033203"/>
      <use xlink:href="#DejaVuSans-75" x="190.820312"/>
      <use xlink:href="#DejaVuSans-6f" x="254.199219"/>
      <use xlink:href="#DejaVuSans-62" x="315.380859"/>
      <use xlink:href="#DejaVuSans-79" x="378.857422"/>
      <use xlink:href="#DejaVuSans-71" x="438.037109"/>
      <use xlink:href="#DejaVuSans-61" x="501.513672"/>
      <use xlink:href="#DejaVuSans-20" x="562.792969"/>
      <use xlink:href="#DejaVuSans-6f" x="594.580078"/>
      <use xlink:href="#DejaVuSans-66" x="655.761719"/>
      <use xlink:href="#DejaVuSans-20" x="690.966797"/>
     </g>
    </g>
    <g id="line2d_67">
     <path d="M 31.127751 120.407064 
L 40.503031 120.407064 
L 49.87831 120.407064 
" style="fill: none; stroke: #c9447a; stroke-width: 2; stroke-linecap: square"/>
     <defs>
      <path id="m7e892f2172" d="M 0 6 
C 1.591219 6 3.117479 5.367802 4.242641 4.242641 
C 5.367802 3.117479 6 1.591219 6 0 
C 6 -1.591219 5.367802 -3.117479 4.242641 -4.242641 
C 3.117479 -5.367802 1.591219 -6 0 -6 
C -1.591219 -6 -3.117479 -5.367802 -4.242641 -4.242641 
C -5.367802 -3.117479 -6 -1.591219 -6 0 
C -6 1.591219 -5.367802 3.117479 -4.242641 4.242641 
C -3.117479 5.367802 -1.591219 6 0 6 
z
" style="stroke: #c9447a"/>
     </defs>
     <g>
      <use xlink:href="#m7e892f2172" x="40.503031" y="120.407064" style="fill-opacity: 0; stroke: #c9447a"/>
     </g>
    </g>
    <g id="text_20">
     <!-- 0.4 uobyqa of  -->
     <g transform="translate(57.378533 123.688412) scale(0.093753 -0.093753)">
      <use xlink:href="#DejaVuSans-30"/>
      <use xlink:href="#DejaVuSans-2e" x="63.623047"/>
      <use xlink:href="#DejaVuSans-34" x="95.410156"/>
      <use xlink:href="#DejaVuSans-20" x="159.033203"/>
      <use xlink:href="#DejaVuSans-75" x="190.820312"/>
      <use xlink:href="#DejaVuSans-6f" x="254.199219"/>
      <use xlink:href="#DejaVuSans-62" x="315.380859"/>
      <use xlink:href="#DejaVuSans-79" x="378.857422"/>
      <use xlink:href="#DejaVuSans-71" x="438.037109"/>
      <use xlink:href="#DejaVuSans-61" x="501.513672"/>
      <use xlink:href="#DejaVuSans-20" x="562.792969"/>
      <use xlink:href="#DejaVuSans-6f" x="594.580078"/>
      <use xlink:href="#DejaVuSans-66" x="655.761719"/>
      <use xlink:href="#DejaVuSans-20" x="690.966797"/>
     </g>
    </g>
    <g id="line2d_68">
     <path d="M 31.127751 134.168216 
L 40.503031 134.168216 
L 49.87831 134.168216 
" style="fill: none; stroke: #db5c68; stroke-width: 2; stroke-linecap: square"/>
     <defs>
      <path id="m6a3a0fa9df" d="M 0 6 
C 1.591219 6 3.117479 5.367802 4.242641 4.242641 
C 5.367802 3.117479 6 1.591219 6 0 
C 6 -1.591219 5.367802 -3.117479 4.242641 -4.242641 
C 3.117479 -5.367802 1.591219 -6 0 -6 
C -1.591219 -6 -3.117479 -5.367802 -4.242641 -4.242641 
C -5.367802 -3.117479 -6 -1.591219 -6 0 
C -6 1.591219 -5.367802 3.117479 -4.242641 4.242641 
C -3.117479 5.367802 -1.591219 6 0 6 
z
" style="stroke: #db5c68"/>
     </defs>
     <g>
      <use xlink:href="#m6a3a0fa9df" x="40.503031" y="134.168216" style="fill-opacity: 0; stroke: #db5c68"/>
     </g>
    </g>
    <g id="text_21">
     <!-- 0.5 uobyqa of  -->
     <g transform="translate(57.378533 137.449564) scale(0.093753 -0.093753)">
      <use xlink:href="#DejaVuSans-30"/>
      <use xlink:href="#DejaVuSans-2e" x="63.623047"/>
      <use xlink:href="#DejaVuSans-35" x="95.410156"/>
      <use xlink:href="#DejaVuSans-20" x="159.033203"/>
      <use xlink:href="#DejaVuSans-75" x="190.820312"/>
      <use xlink:href="#DejaVuSans-6f" x="254.199219"/>
      <use xlink:href="#DejaVuSans-62" x="315.380859"/>
      <use xlink:href="#DejaVuSans-79" x="378.857422"/>
      <use xlink:href="#DejaVuSans-71" x="438.037109"/>
      <use xlink:href="#DejaVuSans-61" x="501.513672"/>
      <use xlink:href="#DejaVuSans-20" x="562.792969"/>
      <use xlink:href="#DejaVuSans-6f" x="594.580078"/>
      <use xlink:href="#DejaVuSans-66" x="655.761719"/>
      <use xlink:href="#DejaVuSans-20" x="690.966797"/>
     </g>
    </g>
    <g id="line2d_69">
     <path d="M 31.127751 147.929368 
L 40.503031 147.929368 
L 49.87831 147.929368 
" style="fill: none; stroke: #eb7556; stroke-width: 2; stroke-linecap: square"/>
     <defs>
      <path id="m058c15fd6d" d="M 0 6 
C 1.591219 6 3.117479 5.367802 4.242641 4.242641 
C 5.367802 3.117479 6 1.591219 6 0 
C 6 -1.591219 5.367802 -3.117479 4.242641 -4.242641 
C 3.117479 -5.367802 1.591219 -6 0 -6 
C -1.591219 -6 -3.117479 -5.367802 -4.242641 -4.242641 
C -5.367802 -3.117479 -6 -1.591219 -6 0 
C -6 1.591219 -5.367802 3.117479 -4.242641 4.242641 
C -3.117479 5.367802 -1.591219 6 0 6 
z
" style="stroke: #eb7556"/>
     </defs>
     <g>
      <use xlink:href="#m058c15fd6d" x="40.503031" y="147.929368" style="fill-opacity: 0; stroke: #eb7556"/>
     </g>
    </g>
    <g id="text_22">
     <!-- 0.6 uobyqa of  -->
     <g transform="translate(57.378533 151.210716) scale(0.093753 -0.093753)">
      <use xlink:href="#DejaVuSans-30"/>
      <use xlink:href="#DejaVuSans-2e" x="63.623047"/>
      <use xlink:href="#DejaVuSans-36" x="95.410156"/>
      <use xlink:href="#DejaVuSans-20" x="159.033203"/>
      <use xlink:href="#DejaVuSans-75" x="190.820312"/>
      <use xlink:href="#DejaVuSans-6f" x="254.199219"/>
      <use xlink:href="#DejaVuSans-62" x="315.380859"/>
      <use xlink:href="#DejaVuSans-79" x="378.857422"/>
      <use xlink:href="#DejaVuSans-71" x="438.037109"/>
      <use xlink:href="#DejaVuSans-61" x="501.513672"/>
      <use xlink:href="#DejaVuSans-20" x="562.792969"/>
      <use xlink:href="#DejaVuSans-6f" x="594.580078"/>
      <use xlink:href="#DejaVuSans-66" x="655.761719"/>
      <use xlink:href="#DejaVuSans-20" x="690.966797"/>
     </g>
    </g>
    <g id="line2d_70">
     <path d="M 31.127751 161.69052 
L 40.503031 161.69052 
L 49.87831 161.69052 
" style="fill: none; stroke: #f79044; stroke-width: 2; stroke-linecap: square"/>
     <defs>
      <path id="mb47a96910f" d="M 0 6 
C 1.591219 6 3.117479 5.367802 4.242641 4.242641 
C 5.367802 3.117479 6 1.591219 6 0 
C 6 -1.591219 5.367802 -3.117479 4.242641 -4.242641 
C 3.117479 -5.367802 1.591219 -6 0 -6 
C -1.591219 -6 -3.117479 -5.367802 -4.242641 -4.242641 
C -5.367802 -3.117479 -6 -1.591219 -6 0 
C -6 1.591219 -5.367802 3.117479 -4.242641 4.242641 
C -3.117479 5.367802 -1.591219 6 0 6 
z
" style="stroke: #f79044"/>
     </defs>
     <g>
      <use xlink:href="#mb47a96910f" x="40.503031" y="161.69052" style="fill-opacity: 0; stroke: #f79044"/>
     </g>
    </g>
    <g id="text_23">
     <!-- 0.7 uobyqa of  -->
     <g transform="translate(57.378533 164.971868) scale(0.093753 -0.093753)">
      <use xlink:href="#DejaVuSans-30"/>
      <use xlink:href="#DejaVuSans-2e" x="63.623047"/>
      <use xlink:href="#DejaVuSans-37" x="95.410156"/>
      <use xlink:href="#DejaVuSans-20" x="159.033203"/>
      <use xlink:href="#DejaVuSans-75" x="190.820312"/>
      <use xlink:href="#DejaVuSans-6f" x="254.199219"/>
      <use xlink:href="#DejaVuSans-62" x="315.380859"/>
      <use xlink:href="#DejaVuSans-79" x="378.857422"/>
      <use xlink:href="#DejaVuSans-71" x="438.037109"/>
      <use xlink:href="#DejaVuSans-61" x="501.513672"/>
      <use xlink:href="#DejaVuSans-20" x="562.792969"/>
      <use xlink:href="#DejaVuSans-6f" x="594.580078"/>
      <use xlink:href="#DejaVuSans-66" x="655.761719"/>
      <use xlink:href="#DejaVuSans-20" x="690.966797"/>
     </g>
    </g>
    <g id="line2d_71">
     <path d="M 31.127751 175.451673 
L 40.503031 175.451673 
L 49.87831 175.451673 
" style="fill: none; stroke: #fdae32; stroke-width: 2; stroke-linecap: square"/>
     <defs>
      <path id="m7f7850d66a" d="M 0 6 
C 1.591219 6 3.117479 5.367802 4.242641 4.242641 
C 5.367802 3.117479 6 1.591219 6 0 
C 6 -1.591219 5.367802 -3.117479 4.242641 -4.242641 
C 3.117479 -5.367802 1.591219 -6 0 -6 
C -1.591219 -6 -3.117479 -5.367802 -4.242641 -4.242641 
C -5.367802 -3.117479 -6 -1.591219 -6 0 
C -6 1.591219 -5.367802 3.117479 -4.242641 4.242641 
C -3.117479 5.367802 -1.591219 6 0 6 
z
" style="stroke: #fdae32"/>
     </defs>
     <g>
      <use xlink:href="#m7f7850d66a" x="40.503031" y="175.451673" style="fill-opacity: 0; stroke: #fdae32"/>
     </g>
    </g>
    <g id="text_24">
     <!-- 0.8 uobyqa of  -->
     <g transform="translate(57.378533 178.73302) scale(0.093753 -0.093753)">
      <use xlink:href="#DejaVuSans-30"/>
      <use xlink:href="#DejaVuSans-2e" x="63.623047"/>
      <use xlink:href="#DejaVuSans-38" x="95.410156"/>
      <use xlink:href="#DejaVuSans-20" x="159.033203"/>
      <use xlink:href="#DejaVuSans-75" x="190.820312"/>
      <use xlink:href="#DejaVuSans-6f" x="254.199219"/>
      <use xlink:href="#DejaVuSans-62" x="315.380859"/>
      <use xlink:href="#DejaVuSans-79" x="378.857422"/>
      <use xlink:href="#DejaVuSans-71" x="438.037109"/>
      <use xlink:href="#DejaVuSans-61" x="501.513672"/>
      <use xlink:href="#DejaVuSans-20" x="562.792969"/>
      <use xlink:href="#DejaVuSans-6f" x="594.580078"/>
      <use xlink:href="#DejaVuSans-66" x="655.761719"/>
      <use xlink:href="#DejaVuSans-20" x="690.966797"/>
     </g>
    </g>
    <g id="line2d_72">
     <path d="M 31.127751 189.212825 
L 40.503031 189.212825 
L 49.87831 189.212825 
" style="fill: none; stroke: #fcce25; stroke-width: 2; stroke-linecap: square"/>
     <defs>
      <path id="m3ca0f16706" d="M 0 6 
C 1.591219 6 3.117479 5.367802 4.242641 4.242641 
C 5.367802 3.117479 6 1.591219 6 0 
C 6 -1.591219 5.367802 -3.117479 4.242641 -4.242641 
C 3.117479 -5.367802 1.591219 -6 0 -6 
C -1.591219 -6 -3.117479 -5.367802 -4.242641 -4.242641 
C -5.367802 -3.117479 -6 -1.591219 -6 0 
C -6 1.591219 -5.367802 3.117479 -4.242641 4.242641 
C -3.117479 5.367802 -1.591219 6 0 6 
z
" style="stroke: #fcce25"/>
     </defs>
     <g>
      <use xlink:href="#m3ca0f16706" x="40.503031" y="189.212825" style="fill-opacity: 0; stroke: #fcce25"/>
     </g>
    </g>
    <g id="text_25">
     <!-- 0.9 uobyqa of  -->
     <g transform="translate(57.378533 192.494172) scale(0.093753 -0.093753)">
      <use xlink:href="#DejaVuSans-30"/>
      <use xlink:href="#DejaVuSans-2e" x="63.623047"/>
      <use xlink:href="#DejaVuSans-39" x="95.410156"/>
      <use xlink:href="#DejaVuSans-20" x="159.033203"/>
      <use xlink:href="#DejaVuSans-75" x="190.820312"/>
      <use xlink:href="#DejaVuSans-6f" x="254.199219"/>
      <use xlink:href="#DejaVuSans-62" x="315.380859"/>
      <use xlink:href="#DejaVuSans-79" x="378.857422"/>
      <use xlink:href="#DejaVuSans-71" x="438.037109"/>
      <use xlink:href="#DejaVuSans-61" x="501.513672"/>
      <use xlink:href="#DejaVuSans-20" x="562.792969"/>
      <use xlink:href="#DejaVuSans-6f" x="594.580078"/>
      <use xlink:href="#DejaVuSans-66" x="655.761719"/>
      <use xlink:href="#DejaVuSans-20" x="690.966797"/>
     </g>
    </g>
    <g id="line2d_73">
     <path d="M 31.127751 202.973977 
L 40.503031 202.973977 
L 49.87831 202.973977 
" style="fill: none; stroke: #0d0887; stroke-width: 2; stroke-linecap: square"/>
     <defs>
      <path id="m2444743bc4" d="M 0 -6 
L -1.347084 -1.854102 
L -5.706339 -1.854102 
L -2.179628 0.708204 
L -3.526712 4.854102 
L -0 2.291796 
L 3.526712 4.854102 
L 2.179628 0.708204 
L 5.706339 -1.854102 
L 1.347084 -1.854102 
z
" style="stroke: #0d0887; stroke-linejoin: bevel"/>
     </defs>
     <g>
      <use xlink:href="#m2444743bc4" x="40.503031" y="202.973977" style="fill-opacity: 0; stroke: #0d0887; stroke-linejoin: bevel"/>
     </g>
    </g>
    <g id="text_26">
     <!-- 1.0 uobyqa of  -->
     <g transform="translate(57.378533 206.255325) scale(0.093753 -0.093753)">
      <use xlink:href="#DejaVuSans-31"/>
      <use xlink:href="#DejaVuSans-2e" x="63.623047"/>
      <use xlink:href="#DejaVuSans-30" x="95.410156"/>
      <use xlink:href="#DejaVuSans-20" x="159.033203"/>
      <use xlink:href="#DejaVuSans-75" x="190.820312"/>
      <use xlink:href="#DejaVuSans-6f" x="254.199219"/>
      <use xlink:href="#DejaVuSans-62" x="315.380859"/>
      <use xlink:href="#DejaVuSans-79" x="378.857422"/>
      <use xlink:href="#DejaVuSans-71" x="438.037109"/>
      <use xlink:href="#DejaVuSans-61" x="501.513672"/>
      <use xlink:href="#DejaVuSans-20" x="562.792969"/>
      <use xlink:href="#DejaVuSans-6f" x="594.580078"/>
      <use xlink:href="#DejaVuSans-66" x="655.761719"/>
      <use xlink:href="#DejaVuSans-20" x="690.966797"/>
     </g>
    </g>
   </g>
  </g>
 </g>
 <defs>
  <clipPath id="pa66f334269">
   <rect x="22.69" y="25.56" width="430.502" height="289.88"/>
  </clipPath>
 </defs>
</svg>
